<svg id="Layer_1" data-name="Layer 1" xmlns="http://www.w3.org/2000/svg" viewBox="0 0 512 512"><defs><style>.cls-1{fill:#707070;}</style></defs><title>man-4-handdrawn</title><path class="cls-1" d="M424.41,504.63l-6-.55-47.95,0c-22.24-.15-37,.12-55.06.26l-85.63.51-10.35.63c-1.33.12.23.28,3.08.39,8.82.33,25.13.62,27.17,1,4.2.7,28.09.48,44.38.6,13.83.1,21.73-.05,27.18-.37,5.69-.33,14.57-.66,24.84-.93,4.19-.11,19.3-.18,23.3-.11,13.31.25,26.65.28,39.38.24l9.42,0,4.6,0c1.55,0,2.87,0,4.91-.11a38,38,0,0,0,20-7,36.54,36.54,0,0,1-16.13,5.5A37,37,0,0,1,424.41,504.63Z"/><path class="cls-1" d="M257.57,427.21c-3.47-3.43-7.17-6.85-10.94-10.27l-5.07-4.57v0h0l.18-.79,0-.95c-.68,2.33-.61,1.52-.78,1.73a1.69,1.69,0,0,0-.44.31,1.18,1.18,0,0,0,0,.75l5.35,5.57,1.26,1-1.49-.75L256.23,429c1.16,1.07,2.88,2.49,3.84,3.23C266.08,436.84,264.28,433.85,257.57,427.21Z"/><path class="cls-1" d="M147.24,333.08c2.13-1.26,4.29-2.5,6.42-3.83Q150.41,331.09,147.24,333.08Z"/><path class="cls-1" d="M130.68,509.56H98.84c-1.42,0-3.16-.11-4.72-.25a42.11,42.11,0,0,1-9.41-2.19,40.89,40.89,0,0,1-16-10.45,40.76,40.76,0,0,1-11.27-26l-.1-2.4.09-1.9.19-3.76c.37-5,.27-10,1.08-15L61,432.82c2.18-8.07,3.47-14.4,5.08-18.92s2.59-7.53,3.08-9.29A95.89,95.89,0,0,1,73,393c1.37-3.59,2.51-7,3.74-10,.3-1.05-2.63,4.46-5,9.31-6.3,12-10.63,26.08-13.94,40.62L56,444l-.82,5.57c-.17,1.87-.21,3.75-.32,5.62l-.53,11.21a42.92,42.92,0,0,0,.25,6.89,44.85,44.85,0,0,0,1.5,7.31,44,44,0,0,0,8.45,15.78,43.09,43.09,0,0,0,6.33,6.07c2.52,1.62.09.29-4.71-5.08-2.78-3.29-.29-.78-.21-.92a43.55,43.55,0,0,0,25.66,14.31,32.56,32.56,0,0,0,4.51.56l2.13.13,1.53,0,5.28.16,9,.3,62-.65,8.07-.17C197.61,510.47,164.86,509.55,130.68,509.56Z"/><path class="cls-1" d="M152.35,231.2c1.48,2.69,3,5.39,4.63,8C155.36,236.49,153.81,233.85,152.35,231.2Z"/><path class="cls-1" d="M228,275.14c9.43,2.45,12.17,2.51,9.59,1.52-1.28-.54-3.87-1.39-7.57-2.51l-6.16-2.52-3.64-1.44-3.83-2c-22.85-11-43.15-31.55-53-55.94-1.12-3.27-2.44-6.54-3.53-9.9-.83-3.44-1.84-6.85-2.58-10.29l-.52-2.29a107.62,107.62,0,0,0,9.83,31.77A116.17,116.17,0,0,0,185.9,249l3.15,2.72-3.39-2.47a105.39,105.39,0,0,0,30.27,21.19C219.5,272.5,225.09,274.06,228,275.14Z"/><path class="cls-1" d="M150.38,227.43c.63,1.27,1.29,2.52,2,3.76C151.67,230,151,228.7,150.38,227.43Z"/><path class="cls-1" d="M457.58,465.74l-.71-14-2.07-13.88c-.58-4.65-2.17-9.1-3.2-13.66a167.83,167.83,0,0,0-23.72-50.56c-3.43-4.36-6.25-9.07-10-13.12l1.66,1.69a168,168,0,0,0-87.76-54.43,78.5,78.5,0,0,0-.39-9.8c-.33-2.61-.65-6.67-.93-11.37,0-.47-.05-1.3-.07-2.23a150.45,150.45,0,0,0,17-11.87,137.18,137.18,0,0,0,25.7-29A128.89,128.89,0,0,0,392,195.79c.35,1.06-.63,6.35-.1,5.54.21-.42,1.09-2.31,1.85-7.21.41-2.44,1-5.6,1.56-9.67.22-4,.64-9.27.75-15,.33,1.55.49,3,.67,4.52.31-16.29.42-31.89.36-42.92a120.35,120.35,0,0,0-9.39-46.45c-3-7.14-4.75-9.19-7-13.52l.47,1.39A135.83,135.83,0,0,0,368.75,53a82.61,82.61,0,0,0-6.92-8.39c-2.27-2.47-4.15-4.87-6-6.51A127.36,127.36,0,0,0,319.93,12.7,130.36,130.36,0,0,0,273,.39c-4.85-.2-11.8-.68-17.76-.13A136.2,136.2,0,0,0,215.38,8.4l-.95.33c-.24.08-.47.2-.71.28-1.25.48-2.53.86-3.76,1.37-.48.2-.92.46-1.4.67-22.64,9.28-43.32,26.35-57.64,46.83a132.08,132.08,0,0,0-10.92,19l-.9,2.27L143,71.51c.81-1.47,1.71-2.88,2.62-4.28a129.92,129.92,0,0,0-14.44,36.3c-.08.28-.13.57-.21.85a34.74,34.74,0,0,0-1.52,6.09c-.72,4.7-2,9.55-2.06,14.64q-.23,4.21-.46,8.52c-.12,4.33,0,9.18-.06,13.79,0,9.31,0,18.72.06,28.1l0,7v2.62a6.64,6.64,0,0,0,.71-.44l.17-.12c0,.36,0,.72.06,1.07l.88,6.1.91,6.09c.38,2,1,4,1.43,6a91.25,91.25,0,0,0,3.45,11.78,131.39,131.39,0,0,0,24.48,42.75l6.49,7.18c3.49,3.76,6.75,6.51,9.42,9s5.39,4.1,7.69,5.81c4.55,3.5,9,5.51,14.5,8.9a38.18,38.18,0,0,0,7.91,3.21c1.07.31-2.52-1.65-.63-.93.59.29,1.35.62,2.22,1v.07c-30.52,4.23-61.15,16.91-85.42,36.51a174.77,174.77,0,0,0-22.48,21.42l-2.19,2.68c10.72-12.28,23.37-22.64,36.75-31.72a188,188,0,0,1,43.85-20.32,41.46,41.46,0,0,1,5.65-1.81,43.16,43.16,0,0,0-5.53,2.14,197.16,197.16,0,0,1,29.36-6.56c0,3-.11,5.38-.24,7.15-.21,2.75-.29,5.89-.32,9.78l-.32,0L205.69,298c0,4.81-.06,9.38-.09,13.92l-5.18.8-.56.14c-.05-2-.11-3.62-.19-4.33-.2-1.94-.49-.19-.81,0,0,.86,0-.42-.12-3.49,0,3.11,0,5.71,0,8.08-2.07.51-4.14,1.07-6.19,1.58l-7.69,2-7,2.6c-15,5.33-25,11.54-31.1,15-3.47,1.73-6.81,4.34-10.71,7.17-1.91,1.46-4.07,2.85-6.12,4.65l-6.46,5.87c-4.85,4-8.76,9-13.12,13.57l-.14-.06a155.78,155.78,0,0,1,37.09-32.48,69.84,69.84,0,0,0-8.84,5.93l-7.1,5.29c-2.32,1.8-4.37,3.89-6.57,5.82C103.37,369,88,394.39,79.32,421c-1.32,5.39-3.1,11.1-4.24,16.59l-2.51,14.84c-.66,8.29-1.17,12.2-1.11,5.56-.19-10,2.18-24.34,5.43-37.23.38-1.67,2.75-7.65,4.17-11.64l-.25,1.62c.81-2.2,1.44-4.34,2.31-6.34l2.76-5.9a99.85,99.85,0,0,1,6.56-12.69,75.58,75.58,0,0,0-5.68,10.09l-2.27,4.56c-.46.38-1.11,1.29-1.08.82.2-1.31-3.56,4.33,5.38-13.93,2.11-3.56,4.71-8.26,7.2-12.12,2.68-3.73,4.9-6.84,5.45-7.74a50.48,50.48,0,0,1,3.4-4.85l7.54-8.37a185.28,185.28,0,0,1,19-17.42c3.3-2.72,0-.64-.53-.61l6.13-4.73c-6,4.54-11.22,8.05-15.22,12-4.15,3.79-8,7-11.17,10.8L109,356.61c-5.61,5.64-9.86,11.85-14.34,17.65-2.1,3-3.87,6.16-5.8,9.21a73,73,0,0,0-5.26,9.43l-4.75,9.89c-1.39,3.43-2.58,7-3.91,10.6l-2,5.5-1.47,5.82c-.89,4-2.24,7.94-2.85,12.25a50.24,50.24,0,0,1,1.23-6.67,82.32,82.32,0,0,0-2.25,11.37l-1.51,9.66c-.41,2.66-.72,3.58-1.17,8l-.55,7.39a31.18,31.18,0,0,0,.81,9.4,34.65,34.65,0,0,0,14.23,20.49,34.13,34.13,0,0,0,11.41,5,50,50,0,0,0,11.79.94l43.8.15,21.48,0,101.24-.49,123.29-.87c14.84-.16,36.16-.22,32.25-.85-1-.21-.32-.15,3.38-.41a31.8,31.8,0,0,0,27.29-20A32.43,32.43,0,0,0,457.58,465.74ZM385,114.74a66.3,66.3,0,0,1,1,12c.05,1.67.18,6,.28,9.32,0,4.86.06,10.82.1,17l-.77.24c-.64.21-1.22.35-1.84.55,0-1.8,0-3.58,0-5.35.4-.17.75-.3,1.17-.5,0-2.36,0-5.29.07-8.86s-.12-7.12-.31-10.5c0-.81-.15-1.61-.19-2.42a11.75,11.75,0,0,0,.13-2.09c0-3.72-.63-7.76-1-12s-1.62-8.59-2.42-13C383.58,107.21,384.66,111.25,385,114.74Zm-7.75,33.92a108.64,108.64,0,0,1-16.66,3.93,118.94,118.94,0,0,1-26.21.94c-28.55-2.21-56-11.7-82-23.47a1.39,1.39,0,0,1-.35-.28l4,1.75a286.48,286.48,0,0,0,50.75,17.27c17.38,3.94,35.42,5.93,53,3.42a76,76,0,0,0,8.42-1.43,71.42,71.42,0,0,0,11.65-3.71l1.38-.55.47-.2v1.36c-.5.19-1,.37-1.48.6C381,147.58,380.13,147.67,377.28,148.66ZM271.15,13a54.19,54.19,0,0,1,8.24.88c1.35.22,2.7.41,4.05.6l-.7-.06c-2.22-.12-5.53-.81-9.54-1.07-2.3-.21-4.6-.36-6.9-.43a2.05,2.05,0,0,1-.53-.13Zm-34.57,2.39c-4,1.15-7.9,2.07-11.77,3.38C221,20.36,217,21.6,213,23.53a154.26,154.26,0,0,0-15.72,8.24l6.52-4,5-2.48-.46.17-4.47,2.18-4.34,2.65a91.32,91.32,0,0,0-8,5.15C207.55,23,227.39,16.94,236.57,15.42ZM171,61.4c.37-.44.77-.85,1.15-1.28a51.75,51.75,0,0,0-3.32,4.21l-3.36,4.47C167.2,66.25,169,63.78,171,61.4Zm5-5.57a130.19,130.19,0,0,1,21.06-18.18,136.72,136.72,0,0,1,15.12-8.49,116.26,116.26,0,0,1,38.77-11A119.56,119.56,0,0,1,337.31,44,121.35,121.35,0,0,1,368.12,82.2c3,5.32,5.43,12.3,7.41,17.42,1.47,5.28,2.53,8.71,2.43,7.08s1.68,2.47,3.25,18.18c.12,3.86.51,8,.51,12.13v.5a8.42,8.42,0,0,0-.17,1.22l-.33,4-.16,2.07,0,.52c-.08.12-.33.13-.48.2l-1.06.33-4.21,1.29-4.45,1a57.32,57.32,0,0,0,6-2.21c1.27-.7,2.72-.85,3.15-1.65,0-2.24.13-4,.36-7.71.13-.91,0-4.35-.14-7a71.34,71.34,0,0,0-1.09-11.57l-1-6.37c-.45-2.12-1.11-4.19-1.64-6.23l-1.66-5.87-2-5a51.88,51.88,0,0,0-3-6.89c-.85-1.5-2.25-4-3.41-6.39a125.14,125.14,0,0,0-21.9-29.79c-4.14-3.73-7.9-7.38-11.78-9.92l-5.23-3.73-4.63-2.61c-5.41-3.14-8.11-3.82-5.68-2.27,1.2.86.3.65-1.85-.11a134.35,134.35,0,0,0-20.14-8.08,120.62,120.62,0,0,0-34.55-4.51l-.7.08c.78-.13,1.54-.26,2.35-.41-15.17.18-25.41,2.7-35.55,5.67-.09-.26,2.54-1.59-.79-.6-9.12,2-25.32,10.34-35.32,18.72C186.22,47,183,50.39,180,52.92q-4,4.32-6.57,6.87a89.92,89.92,0,0,0-11.72,16c-2.38,3.55-4,7.52-6,11.34l-.14,0A111.87,111.87,0,0,1,176,55.84Zm18.08-8.43-.78.83a76.07,76.07,0,0,0-6.7,5.71c-3.8,3.13-6.68,7.11-10.07,10.66A122.33,122.33,0,0,0,163.27,85.3c-1.21,2.51-2.32,4.26-3.49,6.37l1-2.49C168.46,72.94,179.67,58.17,194.11,47.41ZM155.6,124.6c1.23-10.06,3.24-20.31,7.13-29.59,2.13-4.79,3.64-8,4.62-10.12,1.21-2.25,2.51-4.45,3.9-6.6A108.86,108.86,0,0,1,192,53.75,36.77,36.77,0,0,1,197,49.81c11-7.62,14.47-9.62,22.07-13.48a30.78,30.78,0,0,0,5-2.63c.07,0,.08-.07.08-.09,1.33-.52,2.5-1,3.06-1.24,3.06-1.4,2.47-1.44-.55-.59,1.19-.55,2.45-1.11,3.6-1.58,2.5-.85,4.33-1.53,3.1-1.4-3.13.42,2.94-1.62,8.21-2.91a73.91,73.91,0,0,0-7.63,1.63,55.74,55.74,0,0,0-8.38,2.37c3.93-1.68,6.45-2.19,8.1-2.81s2.57-1,3.58-1.36c2-.9,4.58-1.64,15-3.06-3.46.13-7.19.87-7,.78A59.11,59.11,0,0,1,253,21.52c.48,0,1.07,0,1.84,0a89.77,89.77,0,0,1,12.63.37c1.37.1,2.6.21,3.76.33l-.15,0c-.5.15,2.07.5-.23.52-10,.2-4.42.41,6,1.93a60.47,60.47,0,0,0-8.89-.34c5,.16,9.51,1.19,15,2.07,5.35,1.14,13.76,3.23,16.85,4.74,14.18,5.59,30.57,15.25,42.34,28.34A106.82,106.82,0,0,1,362,88.45c-.62-.46-2.54-3.55-2.56-2.85-.25.78,2.66,4.85,7.2,20.33l-1.53-2.79a112.4,112.4,0,0,1,4.29,30.34,8.09,8.09,0,0,1,0,2l-.08.82-.06.79s0,0,0,.05l-1.51.48c-2.34.62-4.71,1.17-7.06,1.66-4.79.85-6.42,1.34-9.58,1.8l1,.11a119.76,119.76,0,0,1-28.58-1.68c-16-2.66-42-10.89-61.6-19.34-3.17-1.32-7.66-3.38-11.47-5.23q-7.53-3.65-14.89-7.65l-7.27-4.06c-4.84-2.79-9.79-5.94-14.65-9L178,117.86,155.53,133l-.33.28C155.29,130.26,155.4,127.32,155.6,124.6Zm53.24-11.84-14.4,9.65,9.6-6.66c3.15-2.11,6.67-4.67,9.74-6.5,7.63,4.71,13.33,7.86,16.9,10l-8.19-4.29c-2.78-1.51-5.74-3.18-8.7-5-.37,0-.81.49-1.26.74l-14.06,9.2,10.73-7.34Zm-64.49,9.34c-.16,2.69-.06,3.95-.1,5.46l.28-4.84.71-4.41c.47-2.81.81-5.4,1.28-7.73.81-2,1.25-2.7,2.34-6,.34-.86.83-3.2,1.74-5.6L153,92.52c.21-.53.45-1,.67-1.54-1.28,3.19-2.48,6.41-3.58,9.65-2.52,9.33-4.64,18.82-4.87,28.4l-.32,5.17c0,1.49-.07,3-.1,4.44-.12,3-.23,5.89-.32,8.15-.21,4-.47,6.72-.71,5.31C143.73,142.67,143.53,132.83,144.35,122.1Zm9.91,41.48-10.46,6.92q-.06-4.19,0-8.45l1.85-1.2,7.62-5.07C153.59,158.58,153.93,161.19,154.26,163.58Zm-17.21-26.66c.06-4.79.49-10.15.84-15.06.86-4.89,1.54-9.49,2.41-13,1.81-6.2,2.91-9.4,2.35-6.23q-.94,3.36-1.77,6.74c-.79,4.93-1.77,9.93-2.1,15.21-.12,2.69-.24,5.44-.36,8.28-.18,3.18,0,6.57-.05,10l-.24-5.35c0,6.84-.09,12.6-.12,17.46-.28,2.56-.53,3.7-.76,7.8l-.09,2.64,0,.91c.16,0,.47-.27.72-.4l1.59-1,.06,4c0-1.5,0-2.84.07-4.11l2.17-1.41c0,.88.05,1.83.08,2.87,0,1.65.07,3.53.16,5.45l-4.79,3.16c0-.48-.07-1-.07-1.44C136.9,161.07,137.06,149,137.06,136.92Zm29.13,124.17a106.4,106.4,0,0,1-8.17-9.77,145.19,145.19,0,0,1-11.69-17.69c-5.45-10.57-10-21.92-12.45-33.37-1.08-3.9-1-7-1.47-10.38l.74,3.8a130.73,130.73,0,0,0,34.28,68.46Zm38,22.26c-3.81-1.83-7.63-4.56-11.8-7-3.92-2.79-8-5.69-11.71-8.78-3.52-3.33-7.33-6.19-10.1-9.52A109.52,109.52,0,0,1,152.34,233a178.18,178.18,0,0,1-10.15-24.13l-2.1-8.16-1-4.09-.62-4.17.14-.06a122.37,122.37,0,0,0,8.8,28.73c-1.49-3.45-2.69-7-4-10.5a132.26,132.26,0,0,1-6-32.31l4.82-3.19h0c.07,1,.14,1.91.21,2.81a42.16,42.16,0,0,0,.88,7.73c.32,1.15.6,2.59,1,4.76a66.13,66.13,0,0,0,1.85,9,104.08,104.08,0,0,0,7,19.84c1.69,3.05.59.1.72-.36l2.81,5.55c-1.29-2.73-2.55-5.2-3.58-7.56l-2.46-6.78c-1.73-4.18-2.38-8.16-3.45-12l-.9-2A137.11,137.11,0,0,1,143.91,174c22-14.6,24.47-16.55,13.56-9.71-3.32,2.07-.61,0-.66-.11l18.47-12.28,12-7.27L204.13,133l8.42-5.8.95-.65.08-.07.16-.16a4.61,4.61,0,0,1,.36-.32l.13,0a1.36,1.36,0,0,0,.51.11c.06,0,.18,0,.16-.07a2.82,2.82,0,0,0,.65.2c.28,0-.12-.29-.42-.57a3.48,3.48,0,0,0-1-1.26,5.19,5.19,0,0,0-1,.4l-.3.15a3.86,3.86,0,0,0-.66.39l-3.12,2-13.6,8.9L158.1,161l-3.54,2.34c.09-1.6.19-4.39.25-7,0-.55,0-1.15,0-1.71L175.44,141l25.09-16.55,11-7.39a21.52,21.52,0,0,1,2.36-1.54l4.89,2.83,7,3.84c4.83,2.6,9.78,5.13,14.8,7.56,10,4.9,20.4,9.35,30.66,13.17,27.19,10,56.56,17,84.12,14a101.57,101.57,0,0,0,16-3c2.14-.71,4.28-1.43,5.54-1.94s1.59-.75.79-.65-.26-.11,2.17-1.15c.51-.23,1.17-.48,1.88-.76v5.1a69.57,69.57,0,0,1-7.62,1.83c-10.1,3.13-23.36,4.51-34.27,4a199.93,199.93,0,0,1-38.56-5.43,305.5,305.5,0,0,1-56.37-20.12l-6.78-2.58c-.88-.3,0,.32,1.76,1.3,5.37,3.05,15.71,8,16.92,8.8,2.42,1.84,18.08,8,29.12,11.47a117,117,0,0,0,18.74,4.75c4,.59,10.3,1.59,17.62,2.35,3,.35,13.79,1.41,16.71,1.38a106.88,106.88,0,0,0,28.74-2c2.31-.55,4.61-.95,6.81-1.71l4.29-1.34c1-.36,1.93-.74,2.89-1.12v4.23l0,11.62-.58,11.46A119.36,119.36,0,0,1,367.89,227c-2.14,4-4.66,7.68-7.07,11.45a16,16,0,0,0,1-1.66,119.5,119.5,0,0,1-72.35,50.72c1.6-.15.44.35-2.68,1.3a129.93,129.93,0,0,1-14.61,2.27c-3.06.74-5,1.36-8.72,2.05-2.54.47-1.23.65,4.08.52,2.64-.17,6.34.06,10.94-.81l7.67-1.17c2.78-.55,5.76-1.45,9-2.27a123.76,123.76,0,0,0,45-23.57c8.29-7.16,16.86-16.24,21.93-23.94,15.42-22.46,23.52-50.37,21.77-81.17l0-5.47,2.6-1.05c0,4.21.05,8.49.07,12.62a170.54,170.54,0,0,1-1.16,24.38,49.14,49.14,0,0,1-1.53,9.27,123.26,123.26,0,0,1-20,43.71A155.84,155.84,0,0,1,351,259.59c-4.43,4.06-8,7.93-11.31,10.36-6.36,5.15-9.16,7.51-5.83,5.58,4.56-2.63-8.46,8.2-22.37,14-.81.16-1.58.43-2.41.55,0,.13,0,.28,0,.41l-7.89,2.94c-2.82.94-5.41,1.51-7.68,2.17a82.42,82.42,0,0,1-10.74,2.47c-5.36,1-7.33,1.63-8.21,1.85-.67.24,3,.2-.21.54-7,.64-8.57,1-6.48,1.07a76.66,76.66,0,0,0,15.37-1,87.47,87.47,0,0,1-12.67,1.87l5.35-.21,5.28-.69c3.53-.54,7.23-.79,11.09-1.91a125.46,125.46,0,0,0,16.66-5.07c0,1.2-.07,2.45-.09,3.73a3.9,3.9,0,0,1,.43,3.7,3.28,3.28,0,0,1,.24,1.2v.17a3.34,3.34,0,0,1-.23,1.21c0,2.17,0,4.33,0,6.5,0,2.36.59,5.46-.47,7.65,0,.08-.09.14-.14.22v1.85l0,0,.08.1,0,.12,0,.06,0,0-.75.46-3.92,2.36-39.25,23.52-2.45,1.48-.08.07-.14.12L262,349l-4.74-2.78-12-7.13c-9.56-5.7-19.77-11.82-28.6-17.31l-1-.62c-.11-.08,0,0-.08-.07l0-.06-.06-.1.05-.14c0-.1,0,.27,0-1.26a2.54,2.54,0,0,1,0-.92c.52-3-.38-6,0-9v-.44c0-4.52-.07-9.11-.1-13.7,3.63,1.12,6.26,1.79,4.64,1.07-2.08-1-.9-.74,1.72.05s6.85,1.58,10.66,2.46c-3.77-1.09-7.27-1.82-10.82-3.11-1.85-.73-3.81-1.45-5.86-2.23l.48-.06c6.2,2.18,8.25,2.52,10.64,2.86,3.08.36,6.64,1.68,21.34,3.52l-9.8-1.63c4.06.22,7.89.63,11.77.64l12-.45c-14.9-.26-26.35-2.26-36.61-5.39,1.18,0,2.36-.16,3.54-.17,5.76-.25,13.12-.15,17.35-.3,25.7-.52,14.67-1.78-18.14-1.89-2.87,0-5.78.24-8.67.41q-2.58-.93-5.1-1.95c.11-.25,3.88.77-.39-1C211.33,287.08,208,285.19,204.21,283.35Zm121.94,23.35v-.35C326.82,306.62,326.83,306.73,326.15,306.69Zm0-.39q-.15-9.77-.3-19.35c.86-.47,1.73-1,2.59-1.48.05,5.26.18,9.94.26,15.15,0,2.1,0,4.22.07,6.35C327.89,306.77,327,306.49,326.15,306.3Zm2.67,4.11c0,1.88,0,3.77.07,5.69-.88-.2-1.77-.41-2.59-.58q0-2.86-.09-5.7C327,310,327.94,310.21,328.82,310.41Zm-7.24,7.73.27,0q0,5,0,10.07L315.54,332c-.1.06-.17,0-.29.05l2.28-1.44,4.08-2.47Zm0-3.47,0-5.76.32.06q0,2.87,0,5.75Zm0-8.52-.06-17,.44-.2q0,8.63,0,17.26ZM301.6,340.29l-6.18,4-.09-.43C297.85,342.34,300,341.11,301.6,340.29Zm-14.53,23-.45.26-.84-3.45-.87-3.73.42-.26Zm-36.44,7.83-.46-.28c.46-1.95,1-4.29,1.3-5.32.22-.71.41-1.23.61-1.82l0,0,10.07,6.1,15.12-8.94c.34,1.32.65,2.63.74,3.2.23,1.36.52,2.7.8,4l-16.66,10-11.13-6.74C251.41,369.49,251.24,369.53,250.62,371.09Zm-2.17-1.31-6.3-3.82c.41-1.68.79-3.43,1.21-5.09l.51-2,6.33,3.74Zm29.42-15.13,2.12-1.36,0,.07Zm3.5,3.8,1.88,7L280.7,367c-.25-1-.48-2.08-.7-3.07-.3-1.42-.62-2.79-.94-4.1ZM212,319.74c0,.38,0,.78,0,1.15a8,8,0,0,1-.37,1.56l-.16-.53,0-2.1Zm-.44-8.7.14-16.71.2.07c0,3,0,5.9.06,8.88,0,2.57,0,5.13,0,7.71Zm-5.5,9.73,0,2.74-.14.05,0-2.75Zm-.5.1c0,1.89,0,3.79,0,5.67l20.33,12.26c1.24.76,2.53,1.55,3.81,2.36l-.5,2.12L224.86,341,220,338l.8.1-11.11-6.27,6.49,4.16c.08.34.42.76.15.81-.76.13,1.57,2.18-6.59-2.24-2.86-1.54-7.7-4.3-9.36-5.1a5.58,5.58,0,0,0-.07-.81,41.53,41.53,0,0,1-.28-6.61C202,321.61,203.81,321.22,205.59,320.87Zm-90.91,48c4.56-4.94,8.93-10.06,14.12-14.35,4.8-4.72,10.37-8.51,15.73-12.54,11.21-7.31,23-14,35.77-18.11l-1.51.77-6.21,2.19c-2,.87-4,1.86-5.94,2.8-3.25,1.68-6.68,3-9.74,5l-9.34,5.72c-2.62,1.59-5,3.64-7.46,5.43s-5.08,3.53-7.27,5.72c-4.48,4.23-9.3,8.07-13.16,12.71-2.74,3.13-5.21,5.07-7.42,7.89A24.42,24.42,0,0,1,114.68,368.87Zm57,129-24-.14,18.58-.15-.58,0-24.91,0c24.38-.39,49.16-.43,60.56-.11Zm-47.19-13.21-21.53,0h-2.68c-.9,0-1.91,0-2.23,0a18.73,18.73,0,0,1-2.91-.31,16,16,0,0,1-5.38-2.18A16.92,16.92,0,0,1,82.65,473a20.06,20.06,0,0,1-.61-2.88,18.31,18.31,0,0,1-.07-3.61l.49-9.88a49.29,49.29,0,0,1,.87-8.37l1.27-8.42c1-5.59,2.73-11.07,4.08-16.58,2.08-5.27,3.69-10.69,6-15.67l3.58-7.33,1.75-3.6,2.08-3.34a145.15,145.15,0,0,1,30.75-37.2,160.38,160.38,0,0,1,40.79-26.07l8.94-3.23c6.89-2,12-3.46,16.45-4.55,0,2.77-.07,5.45-.1,8L211.52,338l16.62,9.8,0,.12-1.23-.61,1.2.74-.59,2.48-1.31,5.74-1.78-1.08c-6.13-3.74-9.48-5.66-11-6.2-3.48-1.25-6.72-2.36-9.43-3.15-.45-.13,1.72,1.39,3.63,2.65,5.47,3.6,11.59,7.29,17.83,11L221.92,375c-1.62,6.91-3.37,14.3-5.06,20.71l-2.37,9.16-4.16,17.18,8.92,8,6.37,5.58c.7.6,1.86,1.64,2.24,2,4.45,4.68,6.35,5.44,9.45,8.1a5.11,5.11,0,0,0,2.41,1.32c.38.1-.44-.92.15-.63,1.46.74,5.31,3.59,4.7,2.56-.78-1.32,1.57.53,3.64,2l-5.49-5.37c6.09,5.05,3.13,1.18,10.44,7.49l-2.32-2.27,7.19,3.68L246,443.74c.18-.21,1.38.41.37-.79-2.67-3.19-8.78-8.32-13.12-12.15l-4.64-4.19c-1.74-1.61-3.1-2.94-4-4-1.09-1.18-2.33-2.41-3.81-3.8l1.48-6,1.66-6.67.14,0-2.85,12.54,6.53,5.76-6.32-5.82,1.2-5,6.25-26c1.6-6.46,4.25-14.65,3.87-10.69-.28,3-.93,7.22-1.48,11.11-.07.5-.55,2.33-.84,3.55l-.21-.53-1.56,8,1.36-4.73c.28-.1.54-.37.68-.2.41.48,1.39-1.28.42,4.56-.39,2.38-1.14,6.13-1.09,6.77.09.83-.25,2.18-.84,4.79a62.75,62.75,0,0,0-1.2,6.33c1,.64.59-.1.9-.29h0l1.45,1.13L229,416.27l1.49-6.08a6.33,6.33,0,0,1-.21-.72l3.21-12.37,3-13.09-.22,2,1.54-5.94A9.5,9.5,0,0,0,239,378a41,41,0,0,0,1.31-4.42c.34-1.57.73-3,1.09-4.56,6.22,3.69,6.91,3.88,3.54,1.44-1.12-.81-.06-.39,0-.53l3,1.81-3.65,14.93c-1.11,4.45-1.6,6.86-1.53,7.9.16,2.41.36,4.66.66,6.52.05.31.63-1.29,1.06-2.68,2.15-7,3.81-15.26,5.63-23,.19-.79.35-1.48.48-2.09l7.15,4.31,4.39,2.83,11.18-6.2,6-3.76c1.21,5.38,2.62,10.52,3.66,14.94q0-2.27.06-4.17l.23-3.7c-.61-2.5-1.34-5.39-2-8.27l2.6-1.64.5,1.86c1.16,4.18,2.67,10.22,3,9,.18-.68.57.86,1.77,6.31l1,4.17,6.6,27.74-2,1.77c-1.06,1-2.19,1.81-3.26,2.69l.37-.46-23.58,21.5c1.18-.38-.8,1.77-4.08,4.78a25.36,25.36,0,0,1-1.21,3.26c-.84,1.7,2-.51,8.77-6.8l13-11.95c2.79-2.56,6-5.4,8.28-7.62l6.51-6.28c-1.93-7.12-3.67-13.73-5.46-21.07l-1.73-6.63-2.8-10.26c.95.76.64-1.35-1.11-8.59l-1.33-5.45.44-.28,1.29,5.3.71,3.62,2.57,10.8c.11-.36.37-.19.3-1.18l-.71-8.72c1.73,5.47,1.71,5.41,2.16,9.33.06.57.36,2,.61,3.13a186.71,186.71,0,0,0,5.14,18.36,21.59,21.59,0,0,1,1.08,3.26l2.28,9.44-8.31,7.46c-7.32,6.53-12.37,12-10,10.83,1.65-.81-2,3.91-5.7,7.32-7.08,6.53-8.27,8.28-8.4,9,0,.28,1-.34.29.45-3,3.47-.87,2.09,3-1l-2.77,3.1,5.47-4.45c1.95-1.67,4.86-4.47,6.12-5.45,2.82-2.21,5.84-4.79,8.92-7.5l10.19-9.11,9.09-8.24L307,405.34a4.13,4.13,0,0,1,.79.94c.32.56.67,1.28.76,1a4.11,4.11,0,0,0,0-1.13,16.63,16.63,0,0,0-.22-1.71c-.26-1.55-.76-4-1.61-7.73l1.12,1.26c-1.12-5.32-2.43-11-3-14.45-.84-4.93-2-9.9-3.27-14.54a27.17,27.17,0,0,0-1.77-4.48l-.08.49c-.43-2-.93-4.24-1.4-6.39l.6-.38c1.24-.78,2.6-1.68,3.08-2,2.43-1.87.36-1.1-4,1.13-.46-2.14-.88-4.12-1.11-5.55l-.42-2.43,11.19-6.92,18.8-11.46c0-3-.05-5.95-.07-8.85l0-2.85,2.58.66c0,4.05.09,8.18.14,12.51L316.63,340c-.86.68-2.75,2.09-3.74,3-.46.41.23.19,1.41-.39l3.14-1.6,4-2.1c3.41-1.86,6.39-3.47,7.19-3.74a24.14,24.14,0,0,0,2.91-1.4c.17-2.88.22-8.1.24-13.15l5.56,1.43c4.63,1.55,8.83,3.19,11.22,4.08,21.35,8.29,44.54,24.92,61.42,45a157.68,157.68,0,0,1,26,45.48c-.69-.83-2.91-5.79-2.89-4.81,0,.49.57,2.46,2.17,7.15l1.41,4,1.33,5.34c.87,4,2.53,8.76,3.16,14.81l-1.48-4.48,1.85,12.74c.49,4.24.44,8.48.69,12.5l.14,3,.06,1.41-.07.87a12.89,12.89,0,0,1-.55,3.23,16.36,16.36,0,0,1-2.42,5,17,17,0,0,1-11.55,6.75c-.56.11-1.15,0-1.71.11s-2,0-3,0h-6.36l-12.52.08c-8.28.08-11.07.45-16.33.68l1.56.19-46.26-.35c-25.68-.55-67.39-.71-99.66-.29l-19.09.07ZM230,434.75l-.52-.2-3-2.81-7.89-7-4.35-3.88,3.25-13.7a25,25,0,0,1,1.19-3.42l-.13,1.25-3.88,15.73Zm225,39.92a30,30,0,0,1-24.72,23.42c1.55-.73.53-.44-3.95-.4l-25.51-.14-38.59.07-125.46-.15a2.82,2.82,0,0,1-.63-.11l6.38-.06,157.2-.24,12.62.15c6.23-.16,12.82.43,18.72-.5a28.87,28.87,0,0,0,15.76-8.57,15.58,15.58,0,0,0-2.92,2,29.24,29.24,0,0,1-12,5.16,31.23,31.23,0,0,1-7,.37l-7.78-.34c4.82-.13,8.75-.1,11.18-.36a30.4,30.4,0,0,0,6.22-1.42,29.26,29.26,0,0,0,10.72-6.33,27,27,0,0,0,5.59-8,29.33,29.33,0,0,0,2.08-15.74c-.33-6.21-.56-12.74-1.84-18.82l-1.47-8.83-2.12-7.68c-1.29-4.7-2.32-8.46-3.35-10.52-1-2.33-2.58-6.19-3.93-9.88a164,164,0,0,0-29-45.94C405.9,355.47,400,350.54,394.93,346c-5.34-4.19-10.19-7.55-14-10.15-8-4.55-11.6-6.32-8.15-3.8,2.35,1.77-.7.22-6.22-2.53-5.74-2.34-13.77-6.27-21.64-8.72-5-1.75-9.34-3-13.2-4,0-2,0-3.9,0-5.69a160.65,160.65,0,0,1,53.65,24.2c5.13,3.86,10.79,7.75,15.5,12.4,2.41,2.25,4.92,4.31,7.06,6.52l5.91,6.41c21.61,23.56,36.54,54.36,40.83,90.79l.66,11.82A38.18,38.18,0,0,1,455,474.68Z"/><path class="cls-1" d="M149.27,225.07c-.51-1-1-2-1.43-2.95.81,1.79,1.65,3.56,2.54,5.31C150,226.65,149.61,225.87,149.27,225.07Z"/><path class="cls-1" d="M130.73,336.35Z"/><path class="cls-1" d="M157.16,83.16c-.29.59-.58,1.18-.85,1.78C156.59,84.34,156.87,83.75,157.16,83.16Z"/><path class="cls-1" d="M369.18,137.11s0,0,0,0h0Z"/><path class="cls-1" d="M283.71,351.27l.38-.24,0,.13-.38.22Z"/><path class="cls-1" d="M284,350.74l0,.18-.38.23,0-.17Z"/><path class="cls-1" d="M210,291.41l1.42.53h-.09C210.86,291.76,210.46,291.62,210,291.41Z"/><path class="cls-1" d="M241.59,412.35h0Z"/><polygon class="cls-1" points="241.6 412.35 241.59 412.35 241.59 412.35 241.6 412.35"/></svg>