<svg id="Layer_1" data-name="Layer 1" xmlns="http://www.w3.org/2000/svg" viewBox="0 0 512 512"><defs><style>.cls-1{fill:#707070;}</style></defs><title>woman-5-handdrawn</title><path class="cls-1" d="M120.85,296.52c-.1-4,.34-13.85,1.36-32.17l3.61-65.89,1.78-33.09.82-15.92.19-3.89.58-3.77,1.15-7.53A122.81,122.81,0,0,1,148,89.95a56.75,56.75,0,0,1,7-9.51c1.25-1.36,1.11-.84-.89,2.11l-2,2.91-2.55,4.36c-5.86,9.05-9.77,19.21-13.33,29.5-2.86,10.6-5.25,21.25-5.48,32.94l-1.82,23.3-1.32,24.56c.16,0,.19,2.84.5-.66,1-11.68,1-8.5-.24,15.89-1.66,31.72-3.12,65.53-5.14,94.63-.55,6.34-.51,11.09-.69,10.32l-.55-4.5-.24-6C121.11,305.62,121,301.15,120.85,296.52ZM186.31,44.43l8.1-4.64a89.84,89.84,0,0,1,11.06-5.07c2.15-.86,9.39-3.53,18.3-6.31,9-2.5,19.84-4.62,28.77-5,3.79-.13,7.16-.39,10.2-.44l8.12.36a97.16,97.16,0,0,1,11.42.86c3.1.38,7.15.51,11.64,1.71A101.46,101.46,0,0,1,309,30a82,82,0,0,1,12,4.86l6.83,3.26,4.46,2.75c25.42,15.08,44.88,38.94,54.71,60.7l-3-7.52c-1.08-2.35-2.3-4.48-3.31-6.5l-3.13-6.17-3.57-5.68C364.39,62.59,349.06,48.6,334.3,39.8c-10.55-6.7-20.37-10.37-29.59-13.56-4.69-1.38-9.34-2.37-14-3.58l-14.51-2.12c-30-2.42-62.68,3.87-91,23.08-2.14,1.57-6.5,5.29-8.91,7.34-1.11,1,.38.07,3-1.74C181.34,47.88,183.65,46,186.31,44.43ZM455.35,480a31.79,31.79,0,0,1-27.29,20c-3.7.26-4.38.2-3.38.41,3.9.62-17.41.69-32.24.85l-123.25.87L168,502.57l-21.48,0-43.79-.15a50,50,0,0,1-11.79-.94,34.11,34.11,0,0,1-11.4-5A34.64,34.64,0,0,1,65.3,476.08a31.16,31.16,0,0,1-.81-9.4l.55-7.39c.45-4.39.75-5.3,1.17-8l1.51-9.66A82.29,82.29,0,0,1,70,430.31,50.22,50.22,0,0,0,68.75,437c.61-4.3,2-8.29,2.85-12.24l1.47-5.81,2-5.49c1.33-3.6,2.52-7.17,3.91-10.59l4.75-9.89a73,73,0,0,1,5.26-9.43c1.93-3,3.69-6.21,5.8-9.2,3.56-4.6,7-9.46,11.07-14.1a85.28,85.28,0,0,1-5.26-11c-1.28,1.36-2.63,2.67-3.86,4.08l2.19-2.67c.5-.58,1-1.13,1.56-1.71a81.12,81.12,0,0,1-5.23-23c-.5-3.9-.17-8-.19-12q.29-5.11.58-10.36l1.17-21.33L99,239l2.51-50,1.24-25,.64-13a93.82,93.82,0,0,1,1.23-13.52c5.51-42.19,29.3-81.68,63.79-106.67,1.65-1.21,3.33-2.53,5.1-3.75L179,23.7c3.65-2.16,7-4.48,10.06-5.82A155.92,155.92,0,0,1,312.7,8.64L324.11,13l13.44,6.56c4.52,2.7,9.19,5.54,13.74,8.43,4.3,3.26,8.62,6.38,12.49,9.54a14.42,14.42,0,0,0-1.42-1.41c2.68,2,4.6,3.72,7,5.65A71.82,71.82,0,0,1,378,49.87a151.77,151.77,0,0,1,33.84,55.32,94.54,94.54,0,0,1,3.85,12.71A115.1,115.1,0,0,1,419,133.45l1.25,8.5c.35,2.87.34,5.74.52,8.65.26,5.61.52,11.29.78,16.89l-1.11-5.9c3.09,61.18.94,36.49.09,34l3.66,65.75,2.57,49.57a118.25,118.25,0,0,1,0,13.52l-.76,6.89L424.52,338a83.71,83.71,0,0,1-3,9.28l3.84,4.34,5.31,6,.72.8c.24.27.62.53.23.86l-1.26,1.92-2.66,4.06-2.82,4.33c1,1.37,1.93,2.75,3,4.09a167.79,167.79,0,0,1,23.71,50.54c1,4.56,2.62,9,3.2,13.65l2.07,13.88.71,14A32.42,32.42,0,0,1,455.35,480ZM420.57,349.64c-1,2.38-2.08,4.7-3.26,6.92l.35.39,1.88,2.05c.26.35.74.67.83,1l-.76,1.17-.43.67.33.36-.34-.35-.12.18c1.62,1.91,3.17,3.88,4.63,5.92l3.13-4.85c.75-1.39,2.1-2.83,2.36-4.18l-3.39-3.68Zm.8,21.9.7-1.08c-1.53-2-3.16-3.83-4.77-5.71l-.74,1.13-.93,1.42c1.58,1.93,3.2,3.83,4.69,5.84Zm-4,9.54-2.43,3.73c.14.06-.77,1.8.64-.13,1-1.44,1.76-2.4,2.21-3Zm-1.18-1.57c-1.48-2.07-3-4.08-4.55-6.06l-.75,1.14-9.78,15.12c-1.7,2.66-6,8.95-7.08,10.39a61.55,61.55,0,0,1-4.07,4.84l-9.25,14,2.71-4.59-19.87,30.77-19.27,29.08-.85,2-5.65,8.62,5.37.1,46.25.35-1.56-.19c5.26-.24,8-.6,16.33-.68l12.52-.08H423c1,0,2.36,0,3,0s1.15,0,1.71-.11a17,17,0,0,0,11.55-6.74,16.36,16.36,0,0,0,2.41-5,12.88,12.88,0,0,0,.55-3.23l.07-.87-.06-1.41-.14-3c-.26-4-.2-8.26-.69-12.5l-1.85-12.74L441,443.1c-.63-6-2.29-10.8-3.16-14.8L436.54,423l-1.41-4c-1.6-4.68-2.16-6.66-2.17-7.15,0-1,2.2,4,2.89,4.8a154.75,154.75,0,0,0-18-34.67c-.88,1.52-3.36,5.4-7.76,12.16-11.81,18.13-24.15,37.62-35.41,54-2.25,3.28-4.93,7-4.6,6.31,2-4.37,4.58-9.65,7.43-15.33,1.23-2.44,4.84-8.12,11.71-18.57l24.7-37.6ZM199.61,484.65c-1.36-1.24-5-6-19.13-27.4-7.54-11.46-17.19-24.32-15-20,3.21,6.27-8.42-10.31-23-32.76l-22.84-35c-.75.84-1.53,1.65-2.26,2.5l.5.75,21.84,32.59L156.6,431l26.5,40.3c3.48,5.27,6.36,9.67,8.74,13.34Zm-22.24-183.1a43.13,43.13,0,0,1,5.53-2.14,41.45,41.45,0,0,0-5.65,1.81,188,188,0,0,0-43.83,20.31,222.63,222.63,0,0,0-19.71,15,67.75,67.75,0,0,0,3.91,10.9l4.16-3.78c4-4,9.22-7.48,15.21-12l-6.13,4.73c.57,0,3.83-2.11.53.61-1.69,1.19-6,4.89-10.61,9.14,2.14-1.94,4.3-3.82,6.57-5.72a167.82,167.82,0,0,1,18.23-13c3.35-2.09,7-4.09,10.27-5.84,10-5,15-6.84,16.34-7.44l.25-.23a1,1,0,0,0-.22,0c-.94.16-.18-.28,1.65-1.06.2-.14.4-.33.61-.45-.1-.12.72-.9-.46-.24-2,1.14-2.64,1.65-2,1a18.52,18.52,0,0,1,7.28-4.2,23.49,23.49,0,0,1,18.83,1.69l.61.31c0-1.75,0-3.61,0-5.74l.12,3.48c.32-.21.61-2,.81,0,.05.51.1,1.55.14,2.83l2.19,1.11,3.59-.55c0-4.54.06-9.11.09-13.91l.12,13.88.32,0c0-3.89.1-7,.32-9.78.14-1.76.21-4.15.24-7.08A194.09,194.09,0,0,0,177.37,301.55Zm151-29.75-2.79,2.35c0,2.91.09,5.81.13,8.77.9-.65,1.77-1.31,2.63-2,0-1.74,0-3.49,0-5.46C328.42,274.3,328.42,273.05,328.41,271.8Zm0,11.73c-.83.65-1.74,1.23-2.59,1.86l.35,22.77c.15,0,.32,0,.47,0a19.41,19.41,0,0,1,2.14.14c0-2.54-.06-5.06-.09-7.55C328.58,294.81,328.42,289.65,328.39,283.52Zm84.75,58.54a75.76,75.76,0,0,1-2.84,7.09c1.38,1.32,2.72,2.73,4.05,4.18,1.15-2.41,2.11-4.79,3-7.12-.6-.61-1.18-1.24-1.79-1.83l-2.31-2.26Zm-15.32,20.19.06-.13c0-.08.09-.15,0-.21l-.41-.36c-1.87-1.84-3.75-3.67-5.76-5.36a149.51,149.51,0,0,0-43.09-26.64c.11,3,0,6.06.09,9.08v6.2l0,11.32c0,1.45,0,3.15.07,4.32l.21,5.79c0,3.94,0,7.94,0,11.87-.06,8-.24,15.41-.51,20.77-.15,2.87-.2,7.41-.26,12.09L341,407.31l.75.59a40.85,40.85,0,0,1-6.07-2.27c-6.56-3.1-13.78-6.73-20.57-10.49l-13.55-7.23,1.39-.2c-10.59-5.44-5.9-4.05-5.15-4.48l-11.53-5.54c-3.37-1.71-6.85-3.44-10.14-5.17l-2.82,1.77-11.18,6.2-4.39-2.83L245,369.95c-.07.14-1.13-.28,0,.53,3.06,2.21,2.74,2.24-2-.53l-13.79,7,.51-.36c-1.31.59-2.64,1.12-3.94,1.77l-26.28,13.13-3.77,1.89c-5,2.42-6.45,3.14-5.94,3.26,1,.18-4.89,3.21-9.19,5.54l-6.16,3.31c-.22-10.2-.44-21-.67-31.76-.2-8.85-.17-18.27-.49-26.74,0-1.65,0-3.77,0-5.67,0-2.28,0-4.54,0-6.79,0-1.24.07-2.45.17-3.63-2.41,1-4.8,2-7.18,3.16,0,.57,0,1.14,0,1.71,0,1.59,0,3.18,0,4.72l-.11,3.17c-.1,2-.23,3.84-.39,5.27-.32,2.85-.72,4.13-1.08,2.36a20.12,20.12,0,0,1-.17-2.13l-.32-8.07q-.08-2.93-.16-5.91c-1.36.66-2.73,1.31-4.08,2a160.73,160.73,0,0,0-27,19.05c-2.89,2.52-5.68,5.17-8.38,7.9l21.13,32.05c12.22,18.79,25.31,38.7,35.57,55.33l12.19,18.77,9,14.35h22l19.09-.07c23.06-.3,50.92-.3,74.33-.08l28.09-42.63,31.91-48.7,18.63-28.79,1.16-1.8C398,362,397.74,362.4,397.83,362.25Zm-75.35,122.3,13.81-20.93,1.73-2.94c-1.77,2.48-3.39,4.55-5.34,7.51L322,484.55Zm6.49.08h.4l11.77-18.25-.14-.05-8.52,12.94Zm-126.71,0-5.14-7.24c1.73,2.79,3.23,5.25,4.42,7.24Zm-2.46,0h.5C199,482.79,199.68,484.2,199.79,484.65Zm-27.58-168c-.38.38-.74.77-1.08,1.19,2.32-.93,4.62-1.92,7-2.75V317c-2.83.85-5.62,1.79-8.34,2.75-.26.4-.54.79-.77,1.2,2.22-1,5-2.12,9.11-3.8v2.19l6.77-2.51,7.68-2,4.6-1.18a23.91,23.91,0,0,0-11-2.92,20.24,20.24,0,0,0-7.91,1.78c0,.71-.11,1.42-.11,2.15C175.59,315.47,173.68,316.14,172.2,316.67Zm126.57,7.06.8-.58a16.86,16.86,0,0,0-2.5.84l-7.94,4-4.7,2.44-2.89,1.34-.27.36Zm22.64-46.39,0,8.55.46-.3q0-3.16,0-6.32c0-.75,0-1.52,0-2.27Zm.4,42-.26.09v1.63l.25-.14Q321.81,320.18,321.82,319.38Zm-6.59,12.73c.12,0,.19,0,.29-.05l6.28-3.74v-1.73l-.22.1v1.51l-4.08,2.47Zm6.62-23.3q0-10.32.05-20.64l-.44.32.07,20.4Zm-44,45.89,9.76-5.9.25-.1-7.21,4.51,9.49-5.53,11.43-7.34C296.95,342.76,287.24,348.64,277.87,354.71ZM270.35,365h0c3.51,1.69,8.06,2.78,7.06,1.71-.81-.87.59-.61,3.14.37l3.05-1.81-1.83-.9-5.72-2.77Zm-79,28.76,8.45-4.62,5.48-2.9c8.65-4.39,16.25-8.53,23.7-12.68,2.51-1.4,6-3.1,9-4.66l1.75-.9-.39-.23-2.65-1.57c-2.13,1.31-5.2,3-8.77,4.76l-13.22,6.63a18.75,18.75,0,0,0-2.44,1.55,152.83,152.83,0,0,1-15.08,8.37,21.71,21.71,0,0,1-2.2,1c-2.62.78-2.38.66-6.06,3l5.79-1.41c.73-.18.64.1.94.17l-8.2,4.1-2.64,1.15-6.08,3.09-.2-31.86c0-.58,0-1.14-.06-1.69,0,.06-.11.09-.11.17l-.14,31.94v2.27L184.8,396C190.41,393.19,192.05,392.58,191.3,393.78Zm-79-30.26-.1-.14-.23.25.09.15Zm84.87-40.66,1.85.9c0-.47,0-.89,0-1.36Zm53,39.76-1.46-.87c-.94-.15-1.7-.18-5-1.65l5.43,3Zm-40.31,9.53,13.26-6.85,6.53-3.24c-7.67-4.53-15.35-9.07-22.05-13.48-1.91-1.26-4.08-2.78-3.63-2.65,2,.57,4.25,1.34,6.65,2.17-3.14-1.61-6.26-3.23-9.43-4.92l-8.42-4.36-1.1-.56-.19-.08c-.39-.09-.42.48-.31.64,0,7.67,0,15.39,0,23.08,0,1.69,0,3.67.07,5l.21,6.75,0,3.53c0,.87,0,.39,0,.52h0a2.27,2.27,0,0,0-.51.65,2.13,2.13,0,0,0-.26.74h.19l.11-.26a8.21,8.21,0,0,0,.52-1c.11-.23,0-.14.16.13-.31.22,1-.36,1.8-.74l3-1.38,6.62-3.12-.84,1.32C214.73,368,210.09,371.27,209.9,372.16Zm-1.09-29.27a22.85,22.85,0,0,0,2.56,1.7l9.31,4.61,5.56,2.69,3.28,1.74.51,0-20.13-10.41ZM233,360.45l1.19-.57a37,37,0,0,1-5.46-2.82c-.43-.26-1.69-.9-2.45-1.25-1.69-.79-3.29-1.61-4.94-2.41l3.09,1.87Zm-27-25.78-7-4.32c0-.61,0-1.31,0-1.94-.46-.23-.87-.43-1.05-.5a64.85,64.85,0,0,0-8-2.65c-1.37,0-.37.41,1.17,1.43a58.39,58.39,0,0,0,5.87,3.45Zm-86.27,19.16c-.55-.91-1-1.7-1.42-2.43q-2.07,2-4,4c.49.87,1,1.7,1.56,2.55l1-1.18C117.6,356.07,118.6,355,119.72,353.83ZM178,348l.42,7.83a123,123,0,0,0-.11-16c0,2.44,0,4.51,0,6.58l0,.15-.15-4.91C178.07,344.93,178,346.83,178,348Zm64.83,18.45,6.22-3.2c-1.93-.7-3.78-1.39-2.92-.51s-3.3-.74-4.77-1c-.59-.1.36.61,0,.63a4.63,4.63,0,0,1-1.16-.1c-1.25,1-1.84,1.69-1,1.57s.67.11.23.53Zm3.24,2,16.11,9.76,11.55-6.92c-1.38-.76-2.7-1.51-3.93-2.27-.64-.4-1.95-1-3.27-1.67l-4.36,2.57-8.67-5.26Zm-20.14-29.53-5.37-3.24c-1.08-.49-2.26-1-3.26-1.53-2.36-1.15-3.35-1.66-4.15-1.75-.58-.07-3.74-1.48-5.76-2.31-5-2-3.64-.74-4.17-.44-.19.11,0,.4,0,.69l3.87,2.2-6.73-3,.53-.1-.57-.29c0,.12,0,.26,0,.48,1.67.81,6.5,3.56,9.36,5.1,8.16,4.42,5.83,2.37,6.59,2.24.27-.05-.07-.47-.15-.81l-6.48-4.16,11.1,6.27-.8-.1,4.9,2.94c5.45,2.85,11.4,6,15.57,8C246,351.78,234.83,344.27,225.93,338.85ZM209.53,329l-3.93-2.37c0-1.88,0-3.78,0-5.67-1.77.35-3.62.76-5.6,1.24,0,.75,0,1.46,0,2.06l6.54,3.17ZM212,318.5l-.49,0,0,3.52.16.53A8,8,0,0,0,212,321C212,320.15,212,319.31,212,318.5Zm-6.12,2.37,0,2.76.14-.05,0-2.74Zm6-28.23c0-2.13.06-4.29.1-6.43l-.2-.82-.27,32.33.49.32c0-4.86,0-9.8,0-14.7C212,299.75,211.94,296.21,211.92,292.64Zm-43.1,24.66a156.44,156.44,0,0,0-25.44,13.84,181.62,181.62,0,0,0-15,11.12c-3.21,2.69-6.32,5.49-9.25,8.32.43.82.91,1.62,1.37,2.43,1.55-1.59,3.35-3.34,5.24-5a146.77,146.77,0,0,1,22.95-17.18c2.64-1.59,6.14-3.42,7.48-4.13,4.67-2.05,7-3.19,9.84-4.46.24-.47.5-1,.8-1.46-3.2,1.2-6.25,2.43-9,3.64a8.41,8.41,0,0,1-2.84.85c4.18-2.25,8.49-4.25,12.85-6.12l.13-.2c.18-.3.48-.7.79-1.11C168.31,317.93,168.33,317.78,168.82,317.3ZM110,360.2c.58,1.05,1.22,2.12,1.86,3.14l.22-.24c-.19-.28-.4-.55-.58-.84-.5-.7-.92-1.46-1.37-2.2Zm225.87-17.35,0,.13-.15-4.26c-.08,2.93-.19,4.48-.14,5.49l.42,6.72a92.44,92.44,0,0,0-.11-13.88C335.8,339.2,335.82,341,335.83,342.85Zm9.2-27.73c-1-.33-2-.58-3-.9a21.51,21.51,0,0,1,3.07,3.75C345.14,317,345.05,316.07,345,315.12Zm-15.61,72.59c-5.5-2.73-7.08-3.72-6.49-4.26l-7.49-3.35-4.85-2.26c-7.47-3.67-14.23-6.71-20.93-9.64-1.13-.49-2.44-1.12-3.79-1.79l-2.78,1.75c1.54.68,3.27,1.49,5.12,2.43l11.35,5.65a14,14,0,0,0,2.34.84,60.91,60.91,0,0,1,6,2.38c2.63,1.15,5.34,2.41,8,3.8,1,.5,2.18,1.16,2.65,1.47,3.26,2.16,3.37,2.22,8.1,4.12-2.73-1.88-5.26-3.62-7.22-5.1-.74-.56-.54-.69-.77-1l8.37,4.18,2.87,1.61,6.26,3.09-.2-31.36-.06-1.44c0,.05-.11.08-.11.14l-.14,29.63v2.2Zm2.5-3-.67-18.37c-.2-7.59-.17-15.66-.49-22.92,0-1.31,0-3,0-4.51l.07-4.72a21,21,0,0,1-2.24,1.05c-.6.21-2.45,1.18-4.79,2.44,0,.36,0,.72,0,1a5,5,0,0,1,0,.63,6.27,6.27,0,0,0-.11,1.21c-.1,1.74-.23,3.29-.39,4.51-.32,2.44-.72,3.54-1.08,2a14.86,14.86,0,0,1-.17-1.83l-.16-3.44-.08-1.73c0-.64-.05-.25-.08-.42a.79.79,0,0,0-.33-.3,2.72,2.72,0,0,0,.44-.61l-.4.22-.25.13c-.14.23-.27.36-.31.36s-.12.13-.14.15c-.35.19.86-.45-1.68.62l-1.56.83-3.14,1.6c-1.17.58-1.87.81-1.41.39,1-.89,2.88-2.3,3.74-3l.3-.18c.69-.87,1.44-1.77,2.28-2.71.25-.47.46-.66,1.26-1s1.85-.81,2.64-.1h0l5.95-3.65,0-4.24a5.14,5.14,0,0,0-2.59-1.29l0,4.05-18.8,11.45-15.16,9.38,16.93-6.65-.57.48-5.8,2.9c-7.23,3.5-14.58,7.43-21.74,10.48-.65.28-1.23.51-1.81.74l7.45,3.65c10.62-6.11,19-10.32,15-7.2-.48.37-1.85,1.26-3.08,2L289,364.41l3,1.47-.51-.15c1.07.61,2.11,1.26,3.22,1.82L317,378.68l2.63,1.31c3.43,1.82,4.42,2.29,4,1.69-.79-1.09,2.76.62,5.07,1.59Zm-1.32-121.52s0,.07,0,.11l1.39-1.49,3.07-3.37,2.61-3.5a61.2,61.2,0,0,0,4.81-7.07c-3.78,5.49-12.76,17.13-24.39,25.68a46.66,46.66,0,0,0,6-4.71c1.78-1.62,3.64-3,5.21-4.7l.27-.21c-1.46,1.7-3.27,3-8.07,7.4l6.79-5.73c.74-.69,1.33-1.3,1.88-1.87C330.3,263.49,330.46,263.33,330.59,263.14Zm-21.32,21.63a101.26,101.26,0,0,1-35.52,11l-5.25.5c-2,.06-3.78-.07-4.48-.1a36,36,0,0,1-4.84-.74,106.86,106.86,0,0,1-11.79-1.17c.79.07,1.67.08,3.07.14-10.34-1.29-19.1-3.51-27-7.18a55.8,55.8,0,0,1-7.93-4c0,.53,0,1-.06,1.58,0,.88,0,3.32,0,4.75.05,6.68.1,13.22.15,19.74l0,9.76c0,2.31,0,1.72,0,1.82l-.05.14.06.1,0,.06s0,0,.08.07l1,.62c8.83,5.48,19,11.6,28.59,17.3l12,7.13,4.74,2.78.21.06.14-.12.08-.07,2.45-1.48,13.36-8a46.54,46.54,0,0,1-7,3.11c-1.17.34-.42-.41-.55-.66l-11.24,5.62,4.48-4.56-2.31,1c6.61-3.53,2.88-2.67,8.22-5.69l-5.46,2.37c1.62-1.13,3.6-2.35,2.38-2.25-1,.08,2.15-2,3.06-2.91.36-.37-.63-.11-.47-.4a3.31,3.31,0,0,1,1.57-1.49c2.79-1.51,3.8-2.8,8.5-4.59.41-.15,1.49-.7,2.11-1,7.18-3.88,14.17-7.26,21.54-10.65l3.6-1.7,2-1c0-2.49,0-5,0-7.44,0-4.13.12-8.09.22-11.74a96.28,96.28,0,0,1-10.76,3.86l-6,1.91c-2.47.79-5.3,1.26-7.65,1.81.05.15-1.53.68.47.37,3.35-.52,4.6-.65,3.27-.26-.67.2-2,.52-4,1a52.1,52.1,0,0,1-8.26,1.39c-18.19,2.35-38.56.16-54.1-7-3.1-1.41-6.63-3.14-6-3,4.06.85,8.74,2.47,14.07,3.17,1.13.19,3,.69,5.91,1.5,2.94.49,6.84,1.51,12,2.24a108.32,108.32,0,0,0,61.1-9.6c.06-1.7.12-3.34.19-4.83C309.2,287.07,309.24,286,309.27,284.77Zm-68.15,1.29a89.73,89.73,0,0,1-23-9.07c-.9-.44-1.71-1-2.56-1.53,0,1.65.06,3.5,0,5.78l4.68,2.38c11.29,4.47,7.82,2.31,8.7,2.16.31-.07-.23-.49-.43-.85-.63-.4-3.75-1.44-8.88-4.28,2.76,1.59,5.39,2.31,7.74,3.35a53.11,53.11,0,0,0,7.42,2.46l-1,0a52.53,52.53,0,0,0,7,2,80.31,80.31,0,0,0,11.78,1.37c1.92.07,3.77.24,5.52.21l4.84-.33C270.76,289,253.68,289.48,241.12,286.07Zm-32.29-23.13c-.18-.15-.31-.3-.5-.45A87.5,87.5,0,0,1,187.08,237a44.46,44.46,0,0,1-3.27-6.74l-.58-.79a90,90,0,0,0,23.51,32.4C207.4,262.25,208.13,262.58,208.82,262.94Zm-96.51,74.84c-1.4,1.22-2.76,2.49-4.12,3.76a72.91,72.91,0,0,0,4.48,10.76c1.25-1.31,2.5-2.65,3.88-3.92a56.93,56.93,0,0,1-4-9.62C112.49,338.44,112.41,338.09,112.31,337.78Zm0,34.34c.43-.55.88-1,1.33-1.54l-.07-.11C113.13,371,112.66,371.53,112.29,372.11Zm3-3.27c.76-.77,1.54-1.54,2.35-2.37l-.28-.4-2.27,2.47Zm214.35,115.8,6.73.1c1.8-2.83,3.73-5.84,5.43-8.47,4.3-6.64,6.15-9.46,7.17-11.52.74-1.51,6.32-10.33,9.77-15.92,8.48-13.75,5.11-9.6,5.24-10.73,0-.4-.59.24-1,.46l-7.53,11.11,11.85-18.79-.43,1.26,5.44-8.34,15.69-26.13c5.42-9.31-8,9.95-17.93,25.13L331.9,481.14ZM187.44,33.49a3.86,3.86,0,0,0,.69-.29c42.29-25.32,97.53-26.7,141.12-3.74A156.15,156.15,0,0,1,365.76,56a147.58,147.58,0,0,1,18.67,23.38c2.69,4.69,3.09,5.8,1.77,4.35A135.51,135.51,0,0,1,403,122.62l1.72,6.5c.51,2.2.76,4.48,1.16,6.74a93.39,93.39,0,0,1,1.62,13.79c2.28,42.89,4.62,81,7,118.6L417,313.14a69.73,69.73,0,0,1-3,26.53c.79.73,1.62,1.39,2.4,2.14l1.81,1.86a58.33,58.33,0,0,0,1.68-6.26c1.59-8.06,1.18-12.54.64-8.78-.49,2.72-.68,2.75-.61.66a113.44,113.44,0,0,0,.24-12.17l-2.8-47.87L413.9,204c-.26-4.7-.69-9.69-1-12.68-.5-5.45-1.4-18.55-2.32-33.28-.16-15-3.5-31.43-6.81-43l-4.35-12.26C393,88.28,393.92,87.83,380,69.1l5.24,7.64,4.44,7.94c3.13,5.07,4.94,10.55,7.11,15.21,1.58,3.59.83,2.94,1.18,4.21a158.12,158.12,0,0,0-22.83-38.29c-3.47-3.77-6.61-7.66-10-11a149.07,149.07,0,0,0-37.61-26.7C324,26.5,320.68,24.52,317,23.28l-10.88-4c-7.46-1.95-14.89-4.11-22.58-5-30.52-4.7-62.38,1-89.66,15.33A68.15,68.15,0,0,0,187.44,33.49Zm-66.2,87A139.38,139.38,0,0,1,131.7,93.26l.33-.59c-1.8,4.06-4.23,7.86-8.32,20.14l3.45-9.25c1.07-2.73,2.37-5,3.32-7.05a96.55,96.55,0,0,1,4.82-9.3c3.17-5.33,6-10.43,9.57-14.92,1.71-2.28,3.27-4.66,5.09-6.83l5.67-6.41C146.07,68.2,127.92,92.36,121.24,120.52Zm-7.72,215.32c2.58-2.3,5.19-4.55,7.82-6.69,24.26-19.59,54.88-32.23,85.39-36.44,0-2.1,0-4.35,0-6.93s0-5.32-.07-8.16a54,54,0,0,1-5.82-4.52l-1.49-.75a67,67,0,0,1-6.85-6.35,92.18,92.18,0,0,1-7.72-8.74l3.08,3.49c.06-.42-1.2-2.39.59-.55a123.92,123.92,0,0,0,11.15,10.68,52,52,0,0,0,7.06,5.35q0-3.46,0-6.81a83,83,0,0,1-8.38-7.4l-3.62-3.64-3.31-4a81.14,81.14,0,0,1-6.21-8.6A95,95,0,0,0,206.62,269c0-.07,0-.14,0-.21a76.9,76.9,0,0,1-7.06-6.21,64.8,64.8,0,0,1-6.52-7,46.27,46.27,0,0,1-4.45-6.06,125.17,125.17,0,0,1-9.82-17.59,61.24,61.24,0,0,1-3.33-8.36,63.83,63.83,0,0,1-2.63-9.12,56.89,56.89,0,0,1-1.51-8.76,34.53,34.53,0,0,1-.39-7.17c.08-3,.54-.51.81-.53-.31-4.42-.26-9.31-.25-14.62V165.32l2.08,15.88c0-.14.07-3.38.14-6.6.1,9.83.37,12.31.66,14.34.14,1,.29,1.92.43,3.57s.43,3.69.67,7.33c-.07-2.85-.12-5.22-.17-7.47l.15-7.39.41,7.16c.16,1.75.41,2.33.55,1,.31-2.06,1,6.56,1.79,9.29.34,1.1.21-1.2.48-.6a14.68,14.68,0,0,1,1.31,4.61c1.33,7.09,2.62,10.24,6.33,20.91l2.15,4.88c8.76,16.25,21.4,29.54,37.56,38,10.17,5.55,23.32,8.64,35.74,8.58l5.52-.06,5.46-.64c3.68-.2,7.16-1.43,10.75-2.07,6.94-2.17,13.86-4.63,20.11-8.52a83.33,83.33,0,0,0,33.91-36.94c1.54-2.89,2.57-6.58,3.56-9A104.32,104.32,0,0,0,345,195.29c.06-10.51.23-20.53.51-28.16a31.15,31.15,0,0,0,0-4,14.59,14.59,0,0,0-.85-3.76,16.8,16.8,0,0,0-4.58-6.86l.26.49a28.08,28.08,0,0,0-4.75-2.39,16.76,16.76,0,0,0-3.77-1.12,15.27,15.27,0,0,0-2-.21l-1-.07h-1.91c-5.09,0-10.23-.11-15.31-.28-7.21-.23-19-.27-30-.41l3-.8c-31.26-.13-18.63-1-17.34-1.7l-33.6.2-25.32,0L196,146.08a21.79,21.79,0,0,0-7.37,1c-2.06.47-6.6,3.49-8.54,6.32a20,20,0,0,0-4.08,8.29,19,19,0,0,1,1.33-5.4,32.16,32.16,0,0,0-2.51,6.41c-.31.92-.62.18-.12-3.11.24-1.52-.39.1-.48-.26s-.15-1.54.85-4.11A20.79,20.79,0,0,1,185,144.62a29.77,29.77,0,0,1,10.75-3.21c3.82-.33,5.91-.73,4.11-1-5.22-.73,9.87-1.42,29.83-1.39L263,139c2.4,0,4.95-.18,6.48-.3,5.56-.42,26.8-.84,38.79-.75l6.49.13c4,.24,6,.36,8.37.36s5.51-.39,10.54.15c-2.64-.8-5.51-.87-8.59-1.13l-8.43-.66a4.06,4.06,0,0,1-2.19-.57h11.31a35.17,35.17,0,0,1,10.85,1.1,28,28,0,0,1,6.55,2.89,29,29,0,0,1,13.48,17.09,35.85,35.85,0,0,1,1.17,11.21l0,11.68c0,7.78.2,15.62-.35,23.26-.13,3.85-1.05,7.61-1.53,11.43-.92,3.72-1.8,7.49-3,11.14l-1.27,3.53c.09-.12.17-.16.23-.31a100.9,100.9,0,0,0,6.29-36.18l0-18.65c-.09-6.24.55-12.5-1.43-18.24a29.38,29.38,0,0,0-14-16.7,32.85,32.85,0,0,0-14.14-3.73c-2.73-.14-3.33-.37-2.35-.74l-21.64.35-13.95.15c-21.85.06-41.3.36-60.49.74l-22.9.13c-6,.19-12.18-.37-17.71.69A29,29,0,0,0,175,145.25a30.46,30.46,0,0,0-8,16.51c-.44,3.51-.64,4.46-.92,2.7a42.83,42.83,0,0,1-.77-6.42c2.26-9.14,7.05-13.7,4.94-12.19A31.79,31.79,0,0,1,184,135.46a32.64,32.64,0,0,1,8.41-2.05c2.95-.22,5.62-.17,8.33-.19l32.44-.1-1.39.09,9.71.18h74.84c11.32,0,14.65.13,13.39-.22s1.55-.65,5.83.06a33,33,0,0,1,26.66,31.33q.07,4.6.14,9.25c-.05,12.24.92,24.78-1,37.78-2.71,20.59-13.65,40.88-27.47,55.09a38.68,38.68,0,0,1-3.37,3.32c0,2,0,4-.11,6,0,.65,0,2,0,3.45,13.16-10.58,20.79-21,16.92-14.81a31.64,31.64,0,0,1-3.39,4.24,110.49,110.49,0,0,1-13.51,13c0,2,.07,3.87.12,4.74.27,4.7.59,8.76.93,11.37a83.42,83.42,0,0,1,.38,10.66c.47.11.93.22,1.39.36,0-.3,0-.59,0-.89,4,1,7.91,2.23,11.79,3.53,0-.82,0-1.65-.09-2.47a175.69,175.69,0,0,1,29.91,12.94c2.24,1.18,4.76,2.65,7.28,4.32s5.17,3.33,7.55,5.08a143.82,143.82,0,0,1,14,11.22c1.49,1.27,2.87,2.67,4.27,4a70.84,70.84,0,0,0,2.76-7.1c-2.09-1.9-4.24-3.75-6.33-5.64-22.28-19-48.7-29.63-37.71-25.83l6.3,2.93a176.79,176.79,0,0,1,38.44,26.13,66.23,66.23,0,0,0,2.24-11.24c1-10.24-.37-21-.75-31.57l-1.72-31.75.24,2.72-.82-19-3.4-64.84-1.68-32.34a148.34,148.34,0,0,0-5.65-31.53c-1.79-5.35-3.78-10.92-5.86-15.88-2.43-4.95-4.2-9.13-6-12.29l-4.4-7.2c-2.09-3.44-2.73-4.16-2.2-3.06,1,2-2-2-6.73-8a144.54,144.54,0,0,0-18.41-19.06C339.33,37.27,318,26.51,295,21.11c-23-5.63-47.71-4.67-70.69,1.68A142.77,142.77,0,0,0,173,49.37,138.74,138.74,0,0,0,137.36,93.2l-5.06,10.6c-1.54,3.9-3,8-4.39,11.83a147.23,147.23,0,0,0-5.51,24.27,82.94,82.94,0,0,0-1.18,12.37l-.7,12.58-2.74,52c-.22,4.62-1,15.75-1.22,18.38-.49,5-.8,6.08-1.24,9.15l-1.41,24.5c0-2.17.09-3.94.17-7.79l-2.66,53.58A72.89,72.89,0,0,0,113.52,335.84Zm-7.42-2.25A69.75,69.75,0,0,0,108,341q2-2,4.13-3.87a77.94,77.94,0,0,1-2.63-14.17c-.47-11.66.08-15.74-.28-16.91-.19-1.21-.54.35-.75-.41-.15-.53-.4.75-.69,1.37.1,1.47-1.12,7.89-.2,19.85a54.54,54.54,0,0,1-.54-9c-.09-2.87.09-5.47.19-8.05l.66-15.64.22,1.9c.26-5,.66-12.54.76-14.56.43-15.65.89-32.74,1.21-44.56.28-15.75-2.2,18.48-3.66,45L105,307.19C104.44,315.4,104.21,324.85,106.1,333.59ZM109.45,366q-1.64-2.42-3.1-4.95l-1.46,1.62a50.37,50.37,0,0,0-3.39,4.85c-.55.9-2.77,4-5.45,7.74-2.48,3.86-5.08,8.56-7.19,12.12-8.94,18.25-5.18,12.61-5.38,13.92,0,.47.61-.44,1.08-.82L86.81,396a75.5,75.5,0,0,1,5.68-10.09,99.81,99.81,0,0,0-6.55,12.69l-2.76,5.9c-.87,2-1.5,4.14-2.31,6.33l.25-1.62c-1.42,4-3.79,10-4.16,11.64-3.24,12.89-5.61,27.25-5.42,37.22-.06,6.64.45,2.73,1.11-5.56l2.51-14.83c1.14-5.49,2.93-11.19,4.24-16.58A167.3,167.3,0,0,1,109.45,366Zm15.07,118.59h64.31c-4.27-6.33-6.79-9.75-5.82-7.54l-48-73.28,1.09,1.51-7-11L117,375.76l-1.24-1.9a140.44,140.44,0,0,0-13.58,19.57l-2.08,3.34-1.74,3.59-3.58,7.33c-2.35,5-3.95,10.39-6,15.66-1.34,5.5-3,11-4.08,16.57l-1.27,8.41a49.27,49.27,0,0,0-.87,8.36L82,466.58a18.3,18.3,0,0,0,.07,3.61,20.06,20.06,0,0,0,.61,2.88,16.91,16.91,0,0,0,7.08,9.1,16,16,0,0,0,5.38,2.18,18.71,18.71,0,0,0,2.91.31c.32,0,1.34,0,2.23,0H103Zm76.82,12.79c-11.4-.31-36.17-.27-60.54.11l24.9,0,.57,0-18.57.15,24,.14Zm254-34.17-.66-11.81c-3.63-30.84-15-57.59-31.44-79.38l-1.77,2.72a163.88,163.88,0,0,1,18.64,33c1.35,3.69,3,7.55,3.93,9.88,1,2.07,2.06,5.82,3.35,10.52l2.12,7.68,1.47,8.82c1.28,6.08,1.51,12.61,1.84,18.81a29.32,29.32,0,0,1-2.07,15.73,27,27,0,0,1-5.59,8,29.25,29.25,0,0,1-10.72,6.33A30.4,30.4,0,0,1,428.2,495c-2.43.26-6.36.23-11.18.36l7.78.34a31.21,31.21,0,0,0,7-.37,29.23,29.23,0,0,0,12-5.16,15.57,15.57,0,0,1,2.92-2A28.86,28.86,0,0,1,431,496.73c-5.9.92-12.48.33-18.72.5l-12.62-.15-157.15.24-6.38.06a2.83,2.83,0,0,0,.63.11l125.42.14,38.58-.07,25.5.14c4.48,0,5.5-.33,3.95.4a29.94,29.94,0,0,0,24.71-23.41A38.17,38.17,0,0,0,455.32,463.25Zm-352.89,46.3H98.9c-1.42,0-3.16-.11-4.72-.25a42.1,42.1,0,0,1-9.41-2.19,40.88,40.88,0,0,1-16-10.45,40.74,40.74,0,0,1-11.27-26l-.1-2.4.09-1.9.19-3.76c.37-5,.27-10,1.08-15L61,432.84c2.18-8.07,3.47-14.4,5.08-18.91s2.59-7.52,3.07-9.29A95.91,95.91,0,0,1,73,393.08c1.37-3.59,2.51-7,3.74-10,.3-1.05-2.63,4.46-5,9.31-6.3,12-10.63,26.07-13.93,40.6l-1.68,11.1-.82,5.57c-.17,1.87-.21,3.75-.32,5.62l-.53,11.21a42.89,42.89,0,0,0,.25,6.89,44.83,44.83,0,0,0,1.5,7.31,43.94,43.94,0,0,0,8.45,15.77A43.06,43.06,0,0,0,71,502.5c2.51,1.62.09.29-4.71-5.08-2.78-3.29-.29-.77-.21-.92a43.54,43.54,0,0,0,25.65,14.3,32.57,32.57,0,0,0,4.5.56l2.13.13,1.53,0,5.28.16,9,.3,62-.65,8.07-.17c13.39-.71-19.35-1.63-53.52-1.62Zm321.92-4.92-6-.55-47.93,0c-22.23-.15-37,.12-55,.26l-85.6.51-10.35.63c-1.33.12.23.28,3.08.39,8.82.33,25.12.62,27.16,1,4.2.7,28.08.48,44.36.6,13.83.1,21.73-.05,27.18-.37,5.69-.33,14.56-.66,24.83-.93,4.19-.11,19.29-.18,23.29-.11,13.3.25,26.65.28,39.37.24l9.42,0,4.6,0c1.55,0,2.87,0,4.91-.11a37.93,37.93,0,0,0,20-7,36.53,36.53,0,0,1-16.13,5.5A37,37,0,0,1,424.35,504.64ZM166,311.21c3.44-1.18,6.48-1.75,9.77-2.62,1-.35,2-.67,3-1,.18-.86.42-1.71.66-2.55a159.08,159.08,0,0,0-24.38,10.09C159,313.51,162.78,312.21,166,311.21Zm81.39-17-1-.13A10.07,10.07,0,0,0,247.4,294.22ZM366.8,165.38a46.4,46.4,0,0,0-1.13-8.62,40.18,40.18,0,0,0-2.87-8.11,36.85,36.85,0,0,0-21.23-19.24,39.66,39.66,0,0,0-13.45-2.16l-10.18,0,8.24,1a55,55,0,0,1,8.05,1.53A35.55,35.55,0,0,1,349.59,136a35.14,35.14,0,0,1,11.14,12.84,36.35,36.35,0,0,1,3.42,10.31,51.06,51.06,0,0,1,.63,9.06l.23,15.44q.06,6,.13,12.2c-.29,4.35-.11,8.81-.84,13.25a105.62,105.62,0,0,1-7,27c-.37,1.48-1.72,4.44-2.27,6.2-.27.81.31,0,1.22-1.59,2.92-4.85,6.61-14.74,7.1-16,1.63-2.36,4.83-17.65,4.74-28.28a142.46,142.46,0,0,0-.33-16.23C367.4,176.77,367.08,171.49,366.8,165.38ZM154.22,204l-.74-11.34c-.3-7.68-.7-9.82-1.08-7.64-.19,1.09-.38,3.26-.55,6.35s-.08,8,.22,13.32c1.92,23.18,12.25,47.13,28.37,65.06a114,114,0,0,0,14.17,13.31l1.78,1.23a122.54,122.54,0,0,1-20.81-22.06,122.61,122.61,0,0,1-14.06-26.51,31.92,31.92,0,0,1-1.39-3.4,32.23,32.23,0,0,0,1.71,3.27A121.94,121.94,0,0,1,154.22,204Zm33.05,198.06c-4.65,2.35-10.66,5.49-15.58,7.84,0-.12,0-.23,0-.34.15-8.41-.12-13.49-.26-20.21l-.51-26c-.14-.63-.38-2-.63-2.73-.12-.35-.28.06-.39.81-.33,2.33-.62,6.64-1,7.18s-.47,2.41-.52,4.66c0,2.78-.06,6-.08,8.68a75.27,75.27,0,0,0,.37,11.48c.33,2.19.65,5.62.93,9.49.11,1.59.18,7.59.11,9.33l0,.86c9.11-4.05,19-9.4,26.58-13.18l-5,1.38C189.76,401.65,188.56,401.85,187.28,402.08Zm55.16-67.35-1.5-.26,11.51,6c1.27.65,3.11,1.47,4.13,1.88,6.37,2.52,4.12.26-3.3-4-7.9-4.48-16.69-8.62-25-12.91l-6.76-3.39-.83-.22,20.44,12.26ZM328.67,367c-.08-3.09-.16-6.28-.24-9.59a24.15,24.15,0,0,0-.63-2.34c-.12-.3-.28.05-.39.7-.33,2-.62,5.69-1,6.15s-.47,2.07-.52,4l-.08,2.58a4.83,4.83,0,0,0,.37,2.55,17.31,17.31,0,0,1,.93,3.33,12.56,12.56,0,0,1,.11,2.58l0,.15a47.23,47.23,0,0,0-6.83-3.52l1.44,1.86,1.65,2c1.74.85,3.8,1.74,5.7,2.8v-.11a66.9,66.9,0,0,0-.26-7.67Z"/></svg>